<svg width="350" height="350" viewBox="0 0 350 350" fill="none" xmlns="http://www.w3.org/2000/svg">
<circle cx="175" cy="175" r="175" fill="black"/>
<circle cx="153.5" cy="243.5" r="30.5" fill="#44C592"/>
<path d="M271.5 161.5C271.5 197.675 242.175 227 206 227C169.825 227 140.5 197.675 140.5 161.5C140.5 125.325 169.825 96 206 96C242.175 96 271.5 125.325 271.5 161.5Z" stroke="#FBBC04" stroke-width="34"/>
<path d="M114.77 146.29C111.148 145.446 107.373 145 103.495 145C81.1428 145 62.2512 159.815 56.1034 180.161L114.77 146.29Z" fill="#669DF6"/>
<path d="M54 195.232C54.0967 201.902 55.5128 208.253 57.999 214.036L143.153 164.872C139.288 159.708 134.439 155.324 128.883 151.998L54 195.232Z" fill="#669DF6"/>
<path d="M78.4428 237.202C72.8454 233.911 67.9522 229.551 64.0438 224.402L149.125 175.28C151.576 181.091 152.949 187.468 152.994 194.16L78.4428 237.202Z" fill="#669DF6"/>
<path d="M92.709 242.822C96.181 243.593 99.7904 244 103.495 244C125.671 244 144.441 229.417 150.739 209.318L92.709 242.822Z" fill="#669DF6"/>
</g>
</svg>
