<svg width="235" height="195" viewBox="0 0 235 195" fill="none" xmlns="http://www.w3.org/2000/svg">
<circle cx="99.5" cy="164.5" r="30.5" fill="#44C592"/>
<path d="M217.5 82.5C217.5 118.675 188.175 148 152 148C115.825 148 86.5 118.675 86.5 82.5C86.5 46.3253 115.825 17 152 17C188.175 17 217.5 46.3253 217.5 82.5Z" stroke="#FBBC04" stroke-width="34"/>
<path d="M60.7698 67.2899C57.148 66.4461 53.3734 66 49.4947 66C27.1428 66 8.25118 80.8149 2.1034 101.161L60.7698 67.2899Z" fill="#669DF6"/>
<path d="M0 116.232C0.0966594 122.902 1.51276 129.253 3.999 135.036L89.1525 85.8723C85.2883 80.7081 80.4389 76.3238 74.8831 72.9979L0 116.232Z" fill="#669DF6"/>
<path d="M24.4428 158.202C18.8454 154.911 13.9522 150.551 10.0438 145.402L95.1251 96.2805C97.5756 102.091 98.9485 108.468 98.9936 115.16L24.4428 158.202Z" fill="#669DF6"/>
<path d="M38.709 163.822C42.181 164.593 45.7904 165 49.4947 165C71.6707 165 90.4408 150.417 96.7386 130.318L38.709 163.822Z" fill="#669DF6"/>
</svg>
